<?xml version="1.0" encoding="utf-8"?>
<!-- Generator: Adobe Illustrator 21.1.0, SVG Export Plug-In . SVG Version: 6.00 Build 0)  -->
<svg version="1.1" id="Layer_1" xmlns="http://www.w3.org/2000/svg" xmlns:xlink="http://www.w3.org/1999/xlink" x="0px" y="0px"
	 viewBox="0 0 256 256" style="enable-background:new 0 0 256 256;" xml:space="preserve">
<style type="text/css">
	.st0{fill:#CCCCCC;}
</style>
<path class="st0" d="M244.2,142c-15.2,13.2-30.7,26-45.4,39.5c-1.3-13.3-2.4-26.7-0.2-39.8c1.5-8.4,5.7-17,4.2-25.8
	c-1.2-7.4-7.6-12.1-15-11.3c-9.4,0.7-16.5,8.1-25.8,8.9c-5.4,0.5-11.8-1.2-14.5-6.4c-1-1.6-1.5-3.6-1.6-5.5c1.6-3,3.1-6,4.5-9
	c1.2-2.7-1.7-6.9-4.7-4.7c-4.2,3.1-6.4,7.6-6.7,12.3c-6.2,10.9-14.1,20.9-23.3,29.7c-5.9,5.7-13,11.6-21.9,11.3
	c-9.1-0.2-16.7-6.6-21.2-14.3c-0.7-1.2-1.3-2.5-1.9-3.8c19.3-29.5,32.7-62.7,36.9-97.6c1-7.9,2.2-24.6-9.4-25.6
	c-10.8-1-18.9,12.8-23.1,20.7c-9.1,16.7-14.5,35.4-16.5,54.4c-1.5,15.2-1.3,32.7,4.3,47.5c-15.5,23.2-34.6,43.7-56,61.7
	c-3.4,3,1.2,7.6,4.7,4.9c20.4-17,39.2-37.1,54.6-59.4c9.3,16.8,29.1,23.8,45.5,12.2c11.6-8.3,21.4-19.7,29.2-32c1.2,2.3,2.8,4.3,5,6
	c5.2,3.9,12.1,5.2,18.5,4.2c7.9-1.2,14-6.4,21.7-8.1c12.5-3,10.3,10.8,8.4,18.2c-2.2,8.4-3.7,16.7-3.7,25.6
	c-0.1,10.5,1.2,20.9,2.2,31.2c-1.9,1.8-3.8,3.6-5.7,5.5c-8.1,8.1-16.2,16.7-22.6,26.3c-4.2,6.4-8.9,14.3-8.1,22.1
	c0.7,7.6,7.1,12.3,14,14.3c10.8,3.2,18.7-3.9,23.1-13.3c7.9-16.7,7.4-34,5.9-51.4c15.9-15.1,33-29.2,49.5-43.5
	C252.3,144,247.7,139.3,244.2,142z M65.3,78.1c1.2-17,5.9-34,13.3-49.5c2.5-5.2,5.2-10.6,8.9-15c2-2.5,8.1-8.9,11.6-6.4
	c3,2,2.5,8.9,2.5,11.8c-0.2,5.2-1,10.3-2,15.5C94.4,59.4,86,83,73.7,105.1c-1.9,3.4-3.9,6.7-5.9,10C64.5,103.2,64.4,89.7,65.3,78.1z
	 M194,209.2c-0.5,11.6-2.2,26.3-9.8,35.7c-4.9,6.2-16.2,5.9-19.9-1.7c-3-5.9,2-13.5,4.9-18.5c5.9-9.4,13.5-17.5,21.2-25.1
	c1.1-1.2,2.3-2.3,3.5-3.4C194.1,200.5,194.2,204.9,194,209.2z"/>
</svg>
